
<svg width="37" height="37" viewBox="0 0 37 37" fill="none" xmlns="http://www.w3.org/2000/svg">
<path d="M10.878 3.72775L12.6771 3.18662C13.6627 2.88943 14.7227 2.96097 15.6594 3.3879C16.5961 3.81484 17.3455 4.56799 17.7677 5.50683L19.1583 8.59941C19.5213 9.40694 19.6224 10.3079 19.4474 11.1757C19.2724 12.0436 18.83 12.835 18.1824 13.4387L15.8792 15.5862C15.8118 15.649 15.7692 15.7338 15.7589 15.8252C15.6911 16.4372 16.1058 17.629 17.0616 19.2862C17.7569 20.4903 18.3875 21.3367 18.9224 21.81C19.2955 22.1414 19.5005 22.2123 19.5884 22.1877L22.6872 21.2395C23.5334 20.9807 24.4394 20.9931 25.2782 21.2751C26.117 21.5571 26.8466 22.0946 27.3646 22.812L29.3395 25.55C29.94 26.3827 30.218 27.4049 30.1219 28.427C30.0258 29.4492 29.5621 30.4017 28.8168 31.1077L27.4509 32.4027C26.726 33.0893 25.8356 33.5763 24.8665 33.8165C23.8974 34.0567 22.8826 34.0418 21.921 33.7733C17.6752 32.5877 13.8688 29.0049 10.4587 23.0988C7.04388 17.185 5.846 12.0913 6.94984 7.81625C7.19832 6.85476 7.69028 5.9735 8.37831 5.25739C9.06633 4.54128 9.92722 4.01447 10.878 3.72775ZM11.5455 5.94312C10.9752 6.11495 10.4588 6.43073 10.0459 6.86006C9.63308 7.28938 9.33773 7.81779 9.18834 8.39437C8.26025 11.9895 9.32246 16.5051 12.4613 21.9425C15.5955 27.3723 18.9702 30.5481 22.5438 31.5471C23.1206 31.7078 23.7291 31.7164 24.3103 31.5721C24.8914 31.4279 25.4252 31.1356 25.8599 30.7239L27.2274 29.4289C27.5663 29.1079 27.7771 28.6748 27.8208 28.2101C27.8644 27.7454 27.738 27.2806 27.4648 26.9021L25.4915 24.1656C25.256 23.8391 24.9242 23.5945 24.5426 23.4662C24.161 23.3379 23.7489 23.3324 23.364 23.4503L20.2575 24.4015C18.4538 24.938 16.8165 23.4873 15.059 20.4425C13.875 18.3921 13.3231 16.8042 13.4603 15.5693C13.5328 14.928 13.8303 14.336 14.302 13.895L16.6053 11.7475C16.8998 11.4731 17.101 11.1134 17.1806 10.7188C17.2602 10.3243 17.2143 9.91467 17.0493 9.54754L15.6587 6.45496C15.4668 6.02854 15.1264 5.68645 14.7009 5.49244C14.2755 5.29843 13.794 5.26574 13.3462 5.40046L11.5455 5.94312Z" fill="white"/>
</svg>
